grf
version=1
nRows=11
nColumns=37
inDegrees=no
endheader
time	ground_force_1_vx	ground_force_1_vy	ground_force_1_vz	ground_force_1_px	ground_force_1_py	ground_force_1_pz	ground_moment_1_mx	ground_moment_1_my	ground_moment_1_mz	ground_force_2_vx	ground_force_2_vy	ground_force_2_vz	ground_force_2_px	ground_force_2_py	ground_force_2_pz	ground_moment_2_mx	ground_moment_2_my	ground_moment_2_mz	ground_force_3_vx	ground_force_3_vy	ground_force_3_vz	ground_force_3_px	ground_force_3_py	ground_force_3_pz	ground_moment_3_mx	ground_moment_3_my	ground_moment_3_mz	ground_force_4_vx	ground_force_4_vy	ground_force_4_vz	ground_force_4_px	ground_force_4_py	ground_force_4_pz	ground_moment_4_mx	ground_moment_4_my	ground_moment_4_mz
      3.28000000	      0.00000000	     -0.00000000	      0.00000000	      0.00000000	      0.00000000	      0.00000000	      0.00000000	      0.00000000	      0.00000000	     -7.60723162	      0.02699836	   -801.25830078	   -244.33958307	  -1074.45034940	      0.00000000	      0.00000000	     -0.00000000	  -2601.31221205	      0.00000000	     -0.00000000	      0.00000000	      0.00000000	      0.00000000	      0.00000000	      0.00000000	      0.00000000	      0.00000000	    -34.72363140	     16.14603918	     75.36012268	    604.00420254	   -564.66269993	      0.00000000	      0.00000000	     -0.00000000	   -113.19918955
      3.29000000	      0.00000000	     -0.00000000	      0.00000000	      0.00000000	      0.00000000	      0.00000000	      0.00000000	      0.00000000	      0.00000000	     -6.13141298	      1.02861547	   -801.05352783	   -246.09489441	  -1075.41627828	      0.00000000	      0.00000000	     -0.00000000	  -3012.54072332	      0.00000000	     -0.00000000	      0.00000000	      0.00000000	      0.00000000	      0.00000000	      0.00000000	      0.00000000	      0.00000000	    -34.79934554	     15.82068271	     75.50923157	    606.77015920	   -565.46587239	      0.00000000	      0.00000000	      0.00000000	    119.13595887
      3.30000000	      0.00000000	     -0.00000000	      0.00000000	      0.00000000	      0.00000000	      0.00000000	      0.00000000	      0.00000000	      0.00000000	     -4.72815704	      2.86237288	   -806.66296387	   -248.74787941	  -1076.39729968	      0.00000000	      0.00000000	     -0.00000000	  -3562.64476402	      0.00000000	     -0.00000000	      0.00000000	      0.00000000	      0.00000000	      0.00000000	      0.00000000	      0.00000000	      0.00000000	    -34.88880016	     16.16639061	     75.75077057	    606.77572074	   -564.09943553	      0.00000000	      0.00000000	     -0.00000000	   -202.22813524
      3.31000000	      0.00000000	     -0.00000000	      0.00000000	      0.00000000	      0.00000000	      0.00000000	      0.00000000	      0.00000000	      0.00000000	     -0.02778374	      2.57090235	   -812.81610107	   -251.64594183	  -1076.82305246	      0.00000000	      0.00000000	     -0.00000000	  -3803.84796979	      0.00000000	     -0.00000000	      0.00000000	      0.00000000	      0.00000000	      0.00000000	      0.00000000	      0.00000000	      0.00000000	    -34.99238447	     15.93883630	     75.62097931	    607.48629402	   -565.75825989	      0.00000000	      0.00000000	     -0.00000000	    -25.83683003
      3.32000000	      0.00000000	     -0.00000000	      0.00000000	      0.00000000	      0.00000000	      0.00000000	      0.00000000	      0.00000000	      0.00000000	      5.78020287	      1.59479797	   -816.14337158	   -254.37231770	  -1078.20096401	      0.00000000	      0.00000000	     -0.00000000	  -3845.84869282	      0.00000000	     -0.00000000	      0.00000000	      0.00000000	      0.00000000	      0.00000000	      0.00000000	      0.00000000	      0.00000000	    -34.92640545	     16.08108635	     75.95317841	    602.12267253	   -563.60351275	      0.00000000	      0.00000000	     -0.00000000	   -108.66501577
      3.33000000	      0.00000000	     -0.00000000	      0.00000000	      0.00000000	      0.00000000	      0.00000000	      0.00000000	      0.00000000	      0.00000000	      8.66268921	      0.78805196	   -816.51531982	   -256.04154738	  -1079.19591043	      0.00000000	      0.00000000	     -0.00000000	  -4039.37039432	      0.00000000	     -0.00000000	      0.00000000	      0.00000000	      0.00000000	      0.00000000	      0.00000000	      0.00000000	      0.00000000	    -34.86562968	     16.27005500	     76.21298981	    602.74138263	   -563.95313367	      0.00000000	      0.00000000	     -0.00000000	   -125.49862277
      3.34000000	      0.00000000	     -0.00000000	      0.00000000	      0.00000000	      0.00000000	      0.00000000	      0.00000000	      0.00000000	      0.00000000	     10.33413410	      2.59366632	   -808.67639160	   -256.63940748	  -1079.49151740	      0.00000000	     -0.00000000	     -0.00000000	  -4345.02600329	      0.00000000	     -0.00000000	      0.00000000	      0.00000000	      0.00000000	      0.00000000	      0.00000000	      0.00000000	      0.00000000	    -34.77030423	     16.03767699	     75.13681793	    605.01173294	   -568.57540909	      0.00000000	      0.00000000	      0.00000000	     64.45127198
      3.35000000	      0.00000000	     -0.00000000	      0.00000000	      0.00000000	      0.00000000	      0.00000000	      0.00000000	      0.00000000	      0.00000000	      9.70955372	      6.69339705	   -796.77392578	   -256.16373400	  -1080.91484091	      0.00000000	      0.00000000	     -0.00000000	  -4552.06186006	      0.00000000	     -0.00000000	      0.00000000	      0.00000000	      0.00000000	      0.00000000	      0.00000000	      0.00000000	      0.00000000	    -34.88880014	     16.38268013	     76.18861389	    600.78491392	   -563.76384659	      0.00000000	      0.00000000	     -0.00000000	   -113.52001664
      3.36000000	      0.00000000	     -0.00000000	      0.00000000	      0.00000000	      0.00000000	      0.00000000	      0.00000000	      0.00000000	      0.00000000	      5.33813143	      9.77537155	   -785.96453857	   -254.83710543	  -1081.90615623	      0.00000000	      0.00000000	     -0.00000000	  -4897.73963755	      0.00000000	     -0.00000000	      0.00000000	      0.00000000	      0.00000000	      0.00000000	      0.00000000	      0.00000000	      0.00000000	    -34.81407788	     16.08181304	     75.60128021	    601.78225479	   -561.10997890	      0.00000000	      0.00000000	     -0.00000000	    -82.89275256
      3.37000000	      0.00000000	     -0.00000000	      0.00000000	      0.00000000	      0.00000000	      0.00000000	      0.00000000	      0.00000000	      0.00000000	     -0.96797681	     11.94347382	   -779.35211182	   -253.18501751	  -1083.01751098	      0.00000000	     -0.00000000	     -0.00000000	  -4767.98186181	      0.00000000	     -0.00000000	      0.00000000	      0.00000000	      0.00000000	      0.00000000	      0.00000000	      0.00000000	      0.00000000	    -35.09011701	     16.02957079	     76.18608093	    604.87288472	   -564.10742486	      0.00000000	      0.00000000	     -0.00000000	    -30.72543536
      3.38000000	      0.00000000	     -0.00000000	      0.00000000	      0.00000000	      0.00000000	      0.00000000	      0.00000000	      0.00000000	      0.00000000	     -5.72421646	     12.92390823	   -774.64038086	   -251.80168721	  -1083.06258574	      0.00000000	      0.00000000	     -0.00000000	  -4535.12011194	      0.00000000	     -0.00000000	      0.00000000	      0.00000000	      0.00000000	      0.00000000	      0.00000000	      0.00000000	      0.00000000	    -34.88152552	     16.35209198	     76.36148071	    601.08244829	   -563.42319490	      0.00000000	      0.00000000	     -0.00000000	   -109.64587509
